<svg xmlns="http://www.w3.org/2000/svg" width="80.25" height="75.366" viewBox="0 0 80.25 75.366">
  <g id="car" transform="translate(0 -13.269)">
    <g id="Group_45" data-name="Group 45" transform="translate(0 13.269)">
      <g id="Group_44" data-name="Group 44" transform="translate(0 0)">
        <path id="Path_24" data-name="Path 24" d="M75.925,62.448l-6.368-2.89-1.822-2.945A24.484,24.484,0,0,0,79.146,35.906V23.814a1.881,1.881,0,0,0-1.012-1.62L61.771,13.488a1.792,1.792,0,0,0-1.749.018L44.175,22.194a1.782,1.782,0,0,0-.92,1.62V36.146a24.58,24.58,0,0,0,2.135,10.179H32.119a9.26,9.26,0,0,0-7.307,3.608l-7.234,9.479L5.43,62.724A7.367,7.367,0,0,0,0,69.81v4.638a7.459,7.459,0,0,0,7.4,7.4h.883a9.266,9.266,0,0,0,17.854,0H53.193a9.266,9.266,0,0,0,17.854,0h1.8a7.435,7.435,0,0,0,7.4-7.4V69.129A7.4,7.4,0,0,0,75.925,62.448ZM46.935,24.9l14.044-7.712,14.486,7.731V35.906A20.9,20.9,0,0,1,62.654,55.141h-.037L60.85,55.9l-1.436-.644A20.871,20.871,0,0,1,46.935,36.127V24.9ZM17.21,84.885a5.577,5.577,0,1,1,5.577-5.577A5.573,5.573,0,0,1,17.21,84.885Zm44.911,0A5.577,5.577,0,1,1,67.7,79.308,5.573,5.573,0,0,1,62.12,84.885ZM76.588,74.43h-.018a3.755,3.755,0,0,1-3.718,3.718H71.305a9.262,9.262,0,0,0-18.369,0H26.394a9.262,9.262,0,0,0-18.369,0H7.4A3.755,3.755,0,0,1,3.681,74.43V69.792a3.7,3.7,0,0,1,2.724-3.534l12.737-3.479a1.911,1.911,0,0,0,.994-.663l7.62-9.976a5.528,5.528,0,0,1,4.381-2.154H47.488a24.926,24.926,0,0,0,10.455,8.651l2.209.957a1.861,1.861,0,0,0,1.472,0l2.485-1.068c.129-.055.258-.11.368-.166l2.264,3.626a1.719,1.719,0,0,0,.791.7L74.416,65.8a3.709,3.709,0,0,1,2.172,3.331v5.3Z" transform="translate(0 -13.269)" fill="#fff"/>
      </g>
    </g>
    <g id="Group_47" data-name="Group 47" transform="translate(52.445 31.167)">
      <g id="Group_46" data-name="Group 46">
        <path id="Path_25" data-name="Path 25" d="M302.544,111.2a1.861,1.861,0,0,0-2.6-.295l-.018.018-8.614,7.013-3.129-3.663a1.842,1.842,0,0,0-2.816,2.374l.018.018,4.289,5.025a.253.253,0,0,0,.055.074c.018.018.037.055.074.074l.074.074c.018.018.055.037.074.055a.4.4,0,0,0,.092.055.254.254,0,0,1,.074.055c.037.018.055.037.092.055a.139.139,0,0,0,.074.037.262.262,0,0,0,.11.037c.018.018.055.018.074.037.037.018.074.018.11.037.018,0,.055.018.074.018.037,0,.074.018.11.018.018,0,.055.018.074.018h.4c.037,0,.092-.018.129-.018a.068.068,0,0,0,.055-.018c.037,0,.074-.018.11-.018.018,0,.037-.018.055-.018.037,0,.055-.018.092-.037.018,0,.037-.018.074-.018.018-.018.055-.018.074-.037s.055-.018.074-.037.055-.018.074-.037a.14.14,0,0,1,.074-.037c.018,0,.037-.037.074-.037a.254.254,0,0,1,.074-.055c.018-.018.037-.018.055-.037l9.994-8.135A1.861,1.861,0,0,0,302.544,111.2Z" transform="translate(-284.936 -110.505)" fill="#fff"/>
      </g>
    </g>
  </g>
</svg>
