<svg xmlns="http://www.w3.org/2000/svg" width="512" height="405.334" viewBox="0 0 512 405.334">
  <g id="car" transform="translate(0 -53.333)">
    <g id="Group_4" data-name="Group 4">
      <g id="Group_3" data-name="Group 3">
        <path id="Path_27" data-name="Path 27" d="M146.219,333.781l-51.5-51.5A53.031,53.031,0,0,0,57,266.667H21.333a10.667,10.667,0,1,0,0,21.333H57a32.225,32.225,0,0,1,22.613,9.365l33.3,33.3H21.333a10.667,10.667,0,1,0,0,21.334H138.666a10.679,10.679,0,0,0,7.553-18.219Z" fill="#07399c"/>
      </g>
    </g>
    <g id="Group_6" data-name="Group 6">
      <g id="Group_5" data-name="Group 5">
        <path id="Path_28" data-name="Path 28" d="M138.667,384A10.671,10.671,0,0,0,128,394.667v32a10.685,10.685,0,0,1-10.667,10.667h-64a10.685,10.685,0,0,1-10.667-10.667V384a10.667,10.667,0,1,0-21.333,0v42.667a32.039,32.039,0,0,0,32,32h64a32.039,32.039,0,0,0,32-32v-32A10.67,10.67,0,0,0,138.667,384Z" fill="#07399c"/>
      </g>
    </g>
    <g id="Group_8" data-name="Group 8">
      <g id="Group_7" data-name="Group 7">
        <path id="Path_29" data-name="Path 29" d="M463.6,203.883C434.2,188.5,368.214,181.334,256,181.334S77.8,188.5,48.4,203.883C14.912,221.376,0,250.6,0,298.667c0,46.208,10.581,86.4,11.029,88.085a10.642,10.642,0,0,0,10.3,7.915h93.483l40.405,20.2A10.7,10.7,0,0,0,160,416H352a10.543,10.543,0,0,0,4.757-1.131l40.427-20.2h93.483a10.642,10.642,0,0,0,10.3-7.915c.448-1.685,11.029-41.877,11.029-88.085C512,250.6,497.088,221.376,463.6,203.883Zm18.645,169.45H394.688a10.57,10.57,0,0,0-4.779,1.131l-40.427,20.2H162.517l-40.4-20.2a10.7,10.7,0,0,0-4.779-1.131H29.781c-2.965-13.589-8.448-42.944-8.448-74.667,0-40.171,10.709-62.165,36.928-75.883C83.818,209.428,150.336,202.666,256,202.666s172.181,6.763,197.739,20.117c26.219,13.717,36.928,35.712,36.928,75.883C490.667,330.389,485.184,359.744,482.24,373.333Z" fill="#07399c"/>
      </g>
    </g>
    <g id="Group_10" data-name="Group 10">
      <g id="Group_9" data-name="Group 9">
        <path id="Path_30" data-name="Path 30" d="M490.667,330.667H399.083l33.28-33.3A32.275,32.275,0,0,1,455,288h35.669a10.667,10.667,0,0,0,0-21.334H455a53.028,53.028,0,0,0-37.717,15.616l-51.5,51.5A10.679,10.679,0,0,0,373.334,352H490.667a10.667,10.667,0,0,0,0-21.334Z" fill="#07399c"/>
      </g>
    </g>
    <g id="Group_12" data-name="Group 12">
      <g id="Group_11" data-name="Group 11">
        <path id="Path_31" data-name="Path 31" d="M383,272.811a10.679,10.679,0,0,0-9.664-6.144H138.667a10.661,10.661,0,0,0-8.192,17.493l53.333,64A10.677,10.677,0,0,0,192,352H320a10.677,10.677,0,0,0,8.192-3.84l53.333-64A10.641,10.641,0,0,0,383,272.811Zm-68.01,57.856H196.992L161.429,288h189.12Z" fill="#07399c"/>
      </g>
    </g>
    <g id="Group_14" data-name="Group 14">
      <g id="Group_13" data-name="Group 13">
        <path id="Path_32" data-name="Path 32" d="M468.459,209.088c-12.139-27.9-52.757-119.872-66.88-131.883-17.6-14.955-68.011-23.872-134.912-23.872H245.334c-66.9,0-117.312,8.917-134.912,23.851C96.3,89.195,55.659,181.163,43.542,209.067a10.677,10.677,0,0,0,19.584,8.512c24.085-55.445,53.547-117.056,61.12-124.117,8.213-6.976,42.965-18.795,121.088-18.795h21.333c78.123,0,112.875,11.819,121.045,18.752,7.616,7.1,37.077,68.693,61.163,124.16a10.673,10.673,0,0,0,19.584-8.491Z" fill="#07399c"/>
      </g>
    </g>
    <g id="Group_16" data-name="Group 16">
      <g id="Group_15" data-name="Group 15">
        <path id="Path_33" data-name="Path 33" d="M480,373.333A10.671,10.671,0,0,0,469.333,384v42.667a10.685,10.685,0,0,1-10.667,10.667h-64A10.685,10.685,0,0,1,384,426.667v-32a10.667,10.667,0,0,0-21.334,0v32a32.039,32.039,0,0,0,32,32h64a32.039,32.039,0,0,0,32-32V384A10.668,10.668,0,0,0,480,373.333Z" fill="#07399c"/>
      </g>
    </g>
  </g>
</svg>
