<svg xmlns="http://www.w3.org/2000/svg" width="512" height="512.069" viewBox="0 0 512 512.069">
  <g id="business" transform="translate(-0.034 0)">
    <path id="Path_1" data-name="Path 1" d="M241.034,65.687V232.8L136.062,180.312.034,247.764v264.3h512V65.653L376.007,0Zm-90,416.382h-30v-30h30Zm30,0v-60h-90v60h-61v-215.7l105.972-52.548L241.034,266.34V482.069Zm210,0h-30v-30h30Zm91-397.584V482.069h-61v-60h-90v60h-60V84.451L376.061,33.338Z" fill="#079977"/>
    <path id="Path_2" data-name="Path 2" d="M301.034,122.069h30v30h-30Z" fill="#079977"/>
    <path id="Path_3" data-name="Path 3" d="M421.034,122.069h30v30h-30Z" fill="#079977"/>
    <path id="Path_4" data-name="Path 4" d="M361.034,122.069h30v30h-30Z" fill="#079977"/>
    <path id="Path_5" data-name="Path 5" d="M301.034,182.069h30v30h-30Z" fill="#079977"/>
    <path id="Path_6" data-name="Path 6" d="M361.034,182.069h30v30h-30Z" fill="#079977"/>
    <path id="Path_7" data-name="Path 7" d="M421.034,182.069h30v30h-30Z" fill="#079977"/>
    <path id="Path_8" data-name="Path 8" d="M301.034,242.069h30v30h-30Z" fill="#079977"/>
    <path id="Path_9" data-name="Path 9" d="M421.034,242.069h30v30h-30Z" fill="#079977"/>
    <path id="Path_10" data-name="Path 10" d="M361.034,242.069h30v30h-30Z" fill="#079977"/>
    <path id="Path_11" data-name="Path 11" d="M301.034,302.069h30v30h-30Z" fill="#079977"/>
    <path id="Path_12" data-name="Path 12" d="M361.034,302.069h30v30h-30Z" fill="#079977"/>
    <path id="Path_13" data-name="Path 13" d="M421.034,302.069h30v30h-30Z" fill="#079977"/>
    <path id="Path_14" data-name="Path 14" d="M301.034,362.069h30v30h-30Z" fill="#079977"/>
    <path id="Path_15" data-name="Path 15" d="M421.034,362.069h30v30h-30Z" fill="#079977"/>
    <path id="Path_16" data-name="Path 16" d="M361.034,362.069h30v30h-30Z" fill="#079977"/>
    <path id="Path_17" data-name="Path 17" d="M61.034,302.069h30v30h-30Z" fill="#079977"/>
    <path id="Path_18" data-name="Path 18" d="M121.034,302.069h30v30h-30Z" fill="#079977"/>
    <path id="Path_19" data-name="Path 19" d="M181.034,302.069h30v30h-30Z" fill="#079977"/>
    <path id="Path_20" data-name="Path 20" d="M61.034,362.069h30v30h-30Z" fill="#079977"/>
    <path id="Path_21" data-name="Path 21" d="M181.034,362.069h30v30h-30Z" fill="#079977"/>
    <path id="Path_22" data-name="Path 22" d="M121.034,362.069h30v30h-30Z" fill="#079977"/>
  </g>
</svg>
