<svg xmlns="http://www.w3.org/2000/svg" width="70.411" height="70.411" viewBox="0 0 70.411 70.411">
  <g id="ins" transform="translate(0 0)">
    <g id="_007---Car-Insurance" data-name="007---Car-Insurance" transform="translate(0 0)">
      <path id="Shape" d="M37.059,30.369l9.167,6.526a1.173,1.173,0,0,0,1.361,0l9.167-6.526a7.252,7.252,0,0,0,3.061-5.884V10.6a1.174,1.174,0,0,0-.7-1.077L47.377,4.453a1.174,1.174,0,0,0-.929,0L34.712,9.523a1.174,1.174,0,0,0-.7,1.077V24.485A7.253,7.253,0,0,0,37.059,30.369Zm-.713-19L46.907,6.81l10.562,4.561V24.485a4.9,4.9,0,0,1-2.076,3.979L46.907,34.5l-8.486-6.041a4.9,4.9,0,0,1-2.076-3.972Z" transform="translate(5.901 0.756)" fill="#df1212"/>
      <path id="Shape-2" data-name="Shape" d="M43.163,25.848a1.174,1.174,0,0,0,1.621-.205l9.388-11.735a1.174,1.174,0,1,0-1.833-1.467L43.655,23.288l-3.778-2.839a1.174,1.174,0,0,0-1.408,1.878Z" transform="translate(6.594 2.082)" fill="#df1212"/>
      <path id="Shape-3" data-name="Shape" d="M2.347,62.2H3.521V66.89a3.521,3.521,0,0,0,3.521,3.521h7.041A3.52,3.52,0,0,0,17.6,66.89V62.2H45.767V66.89a3.52,3.52,0,0,0,3.521,3.521h7.041a3.52,3.52,0,0,0,3.521-3.521V62.2h1.174a2.347,2.347,0,0,0,2.347-2.347v-17.6a5.805,5.805,0,0,0-2.029-4.424l4.037-2.873a11.956,11.956,0,0,0,5.033-9.708V8.271a1.174,1.174,0,0,0-.7-1.077L53.278.1a1.174,1.174,0,0,0-.929,0L35.91,7.194a1.174,1.174,0,0,0-.7,1.077v4.638H17.45a5.867,5.867,0,0,0-5.532,3.917L5.006,36.466A5.859,5.859,0,0,0,0,42.246v17.6A2.347,2.347,0,0,0,2.347,62.2ZM15.256,66.89a1.173,1.173,0,0,1-1.174,1.174H7.041A1.174,1.174,0,0,1,5.868,66.89V62.2h9.388Zm-4.694-7.041H8.215V57.5h2.347ZM57.5,66.89a1.173,1.173,0,0,1-1.174,1.174H49.288a1.173,1.173,0,0,1-1.174-1.174V62.2H57.5Zm-2.347-7.041H52.808V57.5h2.347ZM37.552,9.042l15.256-6.59,15.256,6.59V25.236a9.6,9.6,0,0,1-4.047,7.8L52.808,41.017,41.6,33.037a9.6,9.6,0,0,1-4.047-7.8Zm17.6,34.378a1.173,1.173,0,0,1,1.174,1.174V46.94a1.173,1.173,0,0,1-1.174,1.174H48.114a1.173,1.173,0,0,1-1.174-1.174,3.52,3.52,0,0,1,3.521-3.521ZM35.205,19.95V22.3H26.991V19.95Zm0-2.347H32.858V15.256h2.347Zm-21.073,0a3.521,3.521,0,0,1,3.318-2.347H30.511V17.6H26.991a2.347,2.347,0,0,0-2.347,2.347V22.3a2.347,2.347,0,0,0,2.347,2.347h8.215v.6a11.956,11.956,0,0,0,5.033,9.708l2.008,1.429H7.525ZM2.347,42.246a3.521,3.521,0,0,1,3.521-3.521H45.544l3.546,2.525a5.868,5.868,0,0,0-4.5,5.689,3.52,3.52,0,0,0,3.521,3.521h7.041a3.52,3.52,0,0,0,3.521-3.521V44.593a3.521,3.521,0,0,0-2.247-3.273l2.906-2.069a3.471,3.471,0,0,1,1.689,2.995v17.6H57.5V57.5a2.347,2.347,0,0,0-2.347-2.347H52.808A2.347,2.347,0,0,0,50.461,57.5v2.347H12.909V57.5a2.347,2.347,0,0,0-2.347-2.347H8.215A2.347,2.347,0,0,0,5.868,57.5v2.347H2.347Z" transform="translate(0 0)" fill="#df1212"/>
      <path id="Shape-4" data-name="Shape" d="M19.449,15H17.441a3.529,3.529,0,0,0-3.321,2.347L9.715,29.866a1.174,1.174,0,0,0,2.214.779l4.405-12.514a1.174,1.174,0,0,1,1.107-.784h2.008a1.174,1.174,0,1,0,0-2.347Z" transform="translate(1.674 2.602)" fill="#df1212"/>
      <path id="Shape-5" data-name="Shape" d="M7.521,44.388h7.041a3.52,3.52,0,0,0,3.521-3.521A5.875,5.875,0,0,0,12.215,35H7.521A3.521,3.521,0,0,0,4,38.521v2.347A3.521,3.521,0,0,0,7.521,44.388ZM6.347,38.521a1.174,1.174,0,0,1,1.174-1.174h4.694a3.52,3.52,0,0,1,3.521,3.521,1.173,1.173,0,0,1-1.174,1.174H7.521a1.174,1.174,0,0,1-1.174-1.174Z" transform="translate(0.694 6.073)" fill="#df1212"/>
      <path id="Shape-6" data-name="Shape" d="M20.347,50.388H36.776a2.347,2.347,0,0,0,2.347-2.347V43.347A2.347,2.347,0,0,0,36.776,41H20.347A2.347,2.347,0,0,0,18,43.347v4.694A2.347,2.347,0,0,0,20.347,50.388Zm0-7.041H36.776v4.694H20.347Z" transform="translate(3.123 7.114)" fill="#df1212"/>
    </g>
  </g>
</svg>
