<svg xmlns="http://www.w3.org/2000/svg" width="513.859" height="513.999" viewBox="0 0 513.859 513.999">
  <g id="hand" transform="translate(0.499 1)">
    <path id="Path_23" data-name="Path 23" d="M235.793,347.266a10,10,0,1,0-14.145,0A10.013,10.013,0,0,0,235.793,347.266Zm0,0" fill="#d00c0c" stroke="#d00c0c" stroke-width="2"/>
    <path id="Path_24" data-name="Path 24" d="M188.449,109.969A109.969,109.969,0,1,0,298.418,0,110.1,110.1,0,0,0,188.449,109.969Zm199.945,0A89.977,89.977,0,1,1,298.418,20,90.078,90.078,0,0,1,388.395,109.969Zm0,0" fill="#d00c0c" stroke="#d00c0c" stroke-width="2"/>
    <path id="Path_25" data-name="Path 25" d="M115.652,509.043a9.994,9.994,0,0,0,14.109.082l48.469-47.75a30.211,30.211,0,0,0,7.117-31.023L195.773,420.3a29.814,29.814,0,0,1,20.816-8.41h132.9a89.508,89.508,0,0,0,62.758-25.5c.7-.676-5.277,6.359,90.668-108.312a39.99,39.99,0,0,0-60.852-51.9l-58.992,60.633a40.178,40.178,0,0,0-31.082-14.883H240.512a128.977,128.977,0,0,0-50.062-10c-48.141,0-90.176,22.234-112.734,63.922a29.863,29.863,0,0,0-26.738,8.285l-47.559,47.7a10,10,0,0,0-.016,14.1Zm74.793-227.121a109.133,109.133,0,0,1,44.012,9.16,9.979,9.979,0,0,0,4.008.84H351.992a19.994,19.994,0,1,1,0,39.988H270.426a10,10,0,0,0,0,19.992h81.566a39.928,39.928,0,0,0,39.637-45.215c57.066-58.66,65.113-66.9,65.457-67.312a20,20,0,1,1,30.531,25.836l-89.668,107.2a69.612,69.612,0,0,1-48.457,19.488H216.59a49.7,49.7,0,0,0-34.7,14.016l-8.5,8.2L95.07,335.793C113.375,301.453,147.723,281.922,190.445,281.922ZM65.125,348.266A9.973,9.973,0,0,1,77.5,346.859c1.73,1.055-3.238-3.469,86.59,86.234a10.016,10.016,0,0,1,.055,14.09l-41.32,40.707L24.6,388.91Zm0,0" fill="#d00c0c" stroke="#d00c0c" stroke-width="2"/>
    <path id="Path_26" data-name="Path 26" d="M286.422,49.988V61.7a29.99,29.99,0,0,0,10,58.266,10,10,0,0,1,0,19.992c-4.27,0-8.883-2.684-12.98-7.562a10,10,0,1,0-15.3,12.867,41.466,41.466,0,0,0,18.289,13.02v11.668a10,10,0,0,0,19.992,0V158.238a29.99,29.99,0,0,0-10-58.266,10,10,0,0,1,0-20c3.543,0,7.281,1.809,10.813,5.227a10,10,0,1,0,13.906-14.367,38.623,38.623,0,0,0-14.723-9.2V49.988a10,10,0,1,0-19.992,0Zm0,0" fill="#d00c0c" stroke="#d00c0c" stroke-width="2"/>
  </g>
</svg>
