<svg id="maintc" xmlns="http://www.w3.org/2000/svg" width="90.004" height="78.311" viewBox="0 0 90.004 78.311">
  <path id="Path_27" data-name="Path 27" d="M67.61,203h-.036a4.872,4.872,0,0,0-4.865,4.911,4.955,4.955,0,0,0,4.9,4.927h.036a5.768,5.768,0,0,0,3.454-1.5A4.9,4.9,0,0,0,67.61,203Zm.016,7.2a2.356,2.356,0,0,1-1.666-.676,2.277,2.277,0,0,1-.7-1.632,2.325,2.325,0,0,1,2.332-2.342h.018a2.307,2.307,0,0,1,2.349,2.3,2.342,2.342,0,0,1-2.332,2.354Z" transform="translate(-52.923 -173.485)" fill="#019533"/>
  <path id="Path_28" data-name="Path 28" d="M92.45,68.748a1.283,1.283,0,0,0,.01-.167,8.533,8.533,0,0,0-2.106-5.607A7.666,7.666,0,0,0,89.192,61.9l4.461-.034a1.275,1.275,0,0,0,1.264-1.346,12.967,12.967,0,0,0-.646-3.14c-.754-2.208-3.077-3.631-5.929-3.631h-.064c-1.729,0-4.862.029-6.3.034l-2.866-5.206c-2-3.527-4.909-7.582-9.687-7.582h-.062l-34.812.273C30.63,41.3,27.168,44.051,24.8,49l-2.913,5.256c-1.43.008-4.6.027-6.351.04-2.881.021-5.212,1.48-5.939,3.715A12.952,12.952,0,0,0,9,61.157,1.288,1.288,0,0,0,10.273,62.5h.011l4.38-.045a8.353,8.353,0,0,0-3.09,6.727,1.245,1.245,0,0,0,.011.158l2.162,16.128a4.78,4.78,0,0,0,3.995,4.586l.038,5.164A3.016,3.016,0,0,0,20.8,98.208h.023l5.31-.034a3.026,3.026,0,0,0,3-3.044L29.1,90.037l15.32-.112q-.076,1.023-.078,2.057a27.179,27.179,0,0,0,5.164,15.968,1.272,1.272,0,0,0,.2.27A27.323,27.323,0,1,0,91.851,73.553ZM88.3,56.3h.043c1.718,0,3.128.765,3.517,1.9a10.246,10.246,0,0,1,.31,1.12l-7.1.056-1.683-3.051c1.564-.006,3.624-.029,4.91-.029ZM27.052,50.211c.013-.023.025-.047.036-.071,1.114-2.341,3.568-6.289,7.484-6.318l34.812-.273h.044c2.737,0,4.974,1.9,7.461,6.279l5.892,10.68-6.233.05a8.524,8.524,0,0,0-16.921.128l-38.544.285Zm46.92,10.371L62.2,60.67a5.92,5.92,0,0,1,5.847-4.912H68.1a5.9,5.9,0,0,1,4.192,1.684,5.833,5.833,0,0,1,1.683,3.142Zm-62.239-.662a10.2,10.2,0,0,1,.292-1.119c.375-1.155,1.795-1.939,3.532-1.952,1.289-.009,3.347-.021,4.913-.03l-1.686,3.04ZM26.118,95.628l-5.31.039a.49.49,0,0,1-.335-.136.471.471,0,0,1-.141-.333L20.294,90.1l6.256-.046.038,5.095A.474.474,0,0,1,26.118,95.628ZM44.731,87.37l-26.2.195a2.245,2.245,0,0,1-1.573-.642A2.205,2.205,0,0,1,16.3,85.36a1.274,1.274,0,0,0-.012-.16L14.124,69.08c.01-3.347,2.284-5.381,4.576-5.534a1.313,1.313,0,0,0,.208.045h.009l65.976-.517c.009,0,.018-.03.028-.03h.044a4.614,4.614,0,0,1,3.478,1.615,6.065,6.065,0,0,1,1.464,3.857l-.349,2.8a27.334,27.334,0,0,0-39.3,3.674l-.021-2.874a1.253,1.253,0,0,0-1.275-1.239h-.009a1.25,1.25,0,0,0-1.266,1.258l.025,3.323a1.261,1.261,0,0,0,1.275,1.249H49a27.217,27.217,0,0,0-4.268,10.661Zm7.6,20.076,15.43-15.429a1.275,1.275,0,0,0,.259-1.431,10.254,10.254,0,0,1,2.071-11.455A10.15,10.15,0,0,1,78.423,76.2l-2.875,2.855a1.275,1.275,0,0,0-.357,1.127l1.1,6.2a1.275,1.275,0,0,0,1.005,1.028l6,1.2a1.275,1.275,0,0,0,1.153-.349l3.016-3.016a10.15,10.15,0,0,1-2.935,8.324A10.253,10.253,0,0,1,73.068,95.64a1.275,1.275,0,0,0-1.431.258l-15.43,15.428a25,25,0,0,1-3.88-3.88ZM96.45,91.982A24.768,24.768,0,0,1,58.3,112.837L72.839,98.3A12.763,12.763,0,0,0,89.405,82.3a1.275,1.275,0,0,0-2.111-.5L83.12,85.973l-4.473-.9-.828-4.684,4.049-4.022a1.277,1.277,0,0,0-.492-2.116,12.694,12.694,0,0,0-13.094,3.073,12.823,12.823,0,0,0-2.932,13.488L50.817,105.35A24.775,24.775,0,1,1,96.45,91.982Z" transform="translate(-8.997 -41)" fill="#019533"/>
  <path id="Path_29" data-name="Path 29" d="M188.694,205h-.009a1.269,1.269,0,0,0-1.266,1.281l.025,3.312a1.252,1.252,0,0,0,1.275,1.238h.009a1.25,1.25,0,0,0,1.266-1.258l-.025-3.323A1.261,1.261,0,0,0,188.694,205Z" transform="translate(-154.912 -175.12)" fill="#019533"/>
  <path id="Path_30" data-name="Path 30" d="M154.739,205h-.009a1.289,1.289,0,0,0-1.266,1.3l.025,3.391a1.32,1.32,0,0,0,1.275,1.317h.009a1.309,1.309,0,0,0,1.266-1.327l-.025-3.38A1.31,1.31,0,0,0,154.739,205Z" transform="translate(-127.143 -175.12)" fill="#019533"/>
</svg>
