<svg xmlns="http://www.w3.org/2000/svg" width="65.984" height="65.986" viewBox="0 0 65.984 65.986">
  <g id="repair" transform="translate(-0.5 0.001)">
    <path id="Path_7" data-name="Path 7" d="M338.629,155.148a1.289,1.289,0,1,0,1.289,1.288A1.288,1.288,0,0,0,338.629,155.148Zm0,0" transform="translate(-293.428 -135.153)" fill="#fff"/>
    <path id="Path_8" data-name="Path 8" d="M156.934,336.84a1.289,1.289,0,1,0,1.289,1.289A1.288,1.288,0,0,0,156.934,336.84Zm0,0" transform="translate(-135.15 -293.429)" fill="#fff"/>
    <path id="Path_9" data-name="Path 9" d="M64.883,7.928a1.288,1.288,0,0,0-1.206.347L58.333,13.66H55.772l-2.82-2.921v-2.6L58.219,2.8A1.289,1.289,0,0,0,57.712.671,12.9,12.9,0,0,0,41.145,16.226L31.652,25.72,15.836,9.868V6.756a1.289,1.289,0,0,0-.626-1.105L6.1.183A1.288,1.288,0,0,0,4.523.377L.878,4.021A1.29,1.29,0,0,0,.685,5.6l5.467,9.113a1.289,1.289,0,0,0,1.1.626h3.11L26.184,31.188l-9.457,9.457A12.9,12.9,0,0,0,1.172,57.212a1.289,1.289,0,0,0,2.136.5L8.65,52.323h2.576l2.935,2.935v2.576L8.776,63.176a1.289,1.289,0,0,0,.5,2.136,12.891,12.891,0,0,0,14.575-4.7,12.744,12.744,0,0,0,1.992-10.86l7.6-7.6,1.74,1.89-.8.8A1.289,1.289,0,0,0,36.2,46.672l.723-.723L53.246,63.681l.037.038A7.733,7.733,0,0,0,64.22,52.783l-.04-.038L46.42,36.451l.715-.715a1.289,1.289,0,0,0-1.823-1.822l-.793.793L42.626,32.97l7.632-7.632A12.9,12.9,0,0,0,65.812,8.772a1.288,1.288,0,0,0-.929-.844ZM11.814,13.136a1.276,1.276,0,0,0-.912-.365H7.987L3.413,5.133,5.634,2.911l7.624,4.575V10.4a1.288,1.288,0,0,0,.377.91L29.83,27.543l-1.823,1.822ZM44.6,38.276l17.82,16.348a5.156,5.156,0,0,1-7.292,7.291L38.746,44.125Zm-1.9-1.744-5.7,5.7-1.74-1.89L40.8,34.794ZM53.6,23.2A10.3,10.3,0,0,1,50.3,22.66a1.291,1.291,0,0,0-1.323.31L23.471,48.48a1.288,1.288,0,0,0-.31,1.323,10.32,10.32,0,0,1-9.773,13.6,10.556,10.556,0,0,1-1.124-.06l4.093-4.062a1.288,1.288,0,0,0,.381-.915V54.724a1.289,1.289,0,0,0-.378-.911l-3.69-3.69a1.289,1.289,0,0,0-.911-.378H8.114a1.29,1.29,0,0,0-.915.381L3.137,54.22a10.426,10.426,0,0,1-.06-1.124,10.321,10.321,0,0,1,13.6-9.773A1.288,1.288,0,0,0,18,43.013L43.513,17.5a1.289,1.289,0,0,0,.31-1.323A10.32,10.32,0,0,1,53.6,2.577a10.532,10.532,0,0,1,1.157.064L50.745,6.709a1.288,1.288,0,0,0-.371.9v3.646a1.287,1.287,0,0,0,.361.9l3.561,3.69a1.288,1.288,0,0,0,.927.394H58.87a1.288,1.288,0,0,0,.915-.381l4.061-4.093A10.319,10.319,0,0,1,53.6,23.2Zm0,0" transform="translate(0 0)" fill="#fff"/>
    <path id="Path_10" data-name="Path 10" d="M200.429,183.8,184.3,199.931a1.289,1.289,0,0,0,1.823,1.822l16.128-16.128a1.289,1.289,0,0,0-1.823-1.822Zm0,0" transform="translate(-159.785 -159.786)" fill="#fff"/>
    <path id="Path_11" data-name="Path 11" d="M357.274,358.853a1.289,1.289,0,1,0,1.82-1.825l-11.617-11.579a1.289,1.289,0,0,0-1.82,1.825Zm0,0" transform="translate(-300.344 -300.6)" fill="#fff"/>
  </g>
</svg>
