<svg xmlns="http://www.w3.org/2000/svg" width="73.904" height="73.906" viewBox="0 0 73.904 73.906">
  <g id="tax" transform="translate(-0.007)">
    <g id="Group_39" data-name="Group 39" transform="translate(9.822 65.245)">
      <g id="Group_38" data-name="Group 38">
        <path id="Path_21" data-name="Path 21" d="M70.467,452.424a1.442,1.442,0,1,0,.423,1.021A1.453,1.453,0,0,0,70.467,452.424Z" transform="translate(-68.003 -452.001)" fill="#fff"/>
      </g>
    </g>
    <g id="Group_41" data-name="Group 41" transform="translate(65.316 25.984)">
      <g id="Group_40" data-name="Group 40">
        <path id="Path_22" data-name="Path 22" d="M454.918,180.431a1.439,1.439,0,1,0,.424,1.021A1.451,1.451,0,0,0,454.918,180.431Z" transform="translate(-452.454 -180.008)" fill="#fff"/>
      </g>
    </g>
    <g id="Group_43" data-name="Group 43" transform="translate(0.007)">
      <g id="Group_42" data-name="Group 42">
        <path id="Path_23" data-name="Path 23" d="M73.488.423A1.444,1.444,0,0,0,72.467,0L36.959,0a1.444,1.444,0,0,0-1.443,1.443V5.573L21.833,9.24a1.443,1.443,0,0,0-1.021,1.768L27.9,37.472l-6.135,6.135a4.329,4.329,0,0,0-3.575-1.89H4.337a4.335,4.335,0,0,0-4.33,4.33V69.575a4.335,4.335,0,0,0,4.33,4.33H18.194a4.337,4.337,0,0,0,4.2-3.288l1.716,1.5a7.272,7.272,0,0,0,4.78,1.792H72.467a1.444,1.444,0,0,0,1.443-1.443V1.443A1.445,1.445,0,0,0,73.488.423ZM19.637,69.575a1.445,1.445,0,0,1-1.443,1.443H4.337a1.445,1.445,0,0,1-1.443-1.443V46.047A1.445,1.445,0,0,1,4.337,44.6H9.822V61.232a1.443,1.443,0,1,0,2.887,0V44.6h5.485a1.445,1.445,0,0,1,1.443,1.443V69.575Zm4.337-57.921L35.515,8.562v5.349l-.967.259a1.443,1.443,0,0,0-1.021,1.768,3.891,3.891,0,0,1-2.748,4.76,1.444,1.444,0,0,0-1.02,1.771L35.385,43.3h-2.9L31,37.463a1.441,1.441,0,0,0-.242-.506ZM35.515,20.53V32.71l-2.633-9.748A6.762,6.762,0,0,0,35.515,20.53ZM56.253,71.019H28.893a4.386,4.386,0,0,1-2.883-1.08L22.524,66.9V46.934l6.3-6.3L29.969,45.1a1.443,1.443,0,0,0,1.4,1.086l28.379,0a2.021,2.021,0,0,1,0,4.042H45.205a1.443,1.443,0,0,0,0,2.887h19.06a2.021,2.021,0,0,1,0,4.042H45.205a1.443,1.443,0,0,0,0,2.887H61.176a2.021,2.021,0,1,1,0,4.042H45.205a1.443,1.443,0,1,0,0,2.887H56.253a2.021,2.021,0,1,1,0,4.041Zm14.771,0h-10.3a4.89,4.89,0,0,0,0-4.042h.453a4.9,4.9,0,0,0,4.387-7.1A4.9,4.9,0,0,0,68.2,52.217V33.923a1.443,1.443,0,0,0-2.887,0V50.348a4.909,4.909,0,0,0-1.052-.115h-.047A4.9,4.9,0,0,0,59.747,43.3h-2.32A6.908,6.908,0,1,0,52,43.3h-7.89V15.858a6.8,6.8,0,0,0,5.175-5.175H60.141a6.8,6.8,0,0,0,5.175,5.175v4.488a1.443,1.443,0,1,0,2.887,0V14.57a1.444,1.444,0,0,0-1.443-1.443A3.891,3.891,0,0,1,62.874,9.24,1.444,1.444,0,0,0,61.43,7.8H47.995A1.444,1.444,0,0,0,46.552,9.24a3.891,3.891,0,0,1-3.886,3.887,1.444,1.444,0,0,0-1.443,1.443V43.3H38.4V2.889l32.622,0ZM54.713,40.974a4.021,4.021,0,1,1,4.021-4.021A4.026,4.026,0,0,1,54.713,40.974Z" transform="translate(-0.007)" fill="#fff"/>
      </g>
    </g>
  </g>
</svg>
