<svg xmlns="http://www.w3.org/2000/svg" width="77.376" height="78.255" viewBox="0 0 77.376 78.255">
  <g id="three" transform="translate(-2.696)">
    <g id="Group_7" data-name="Group 7" transform="translate(34.354 32.536)">
      <g id="Group_6" data-name="Group 6">
        <path id="Path_12" data-name="Path 12" d="M241.808,218.226l-3.624-1.526-1.345-3.244,1.487-3.652a1.3,1.3,0,0,0-.286-1.414l-4.25-4.249a1.3,1.3,0,0,0-1.414-.286l-3.652,1.487L225.479,204l-1.523-3.624a1.3,1.3,0,0,0-1.2-.8h-6.011a1.3,1.3,0,0,0-1.2.8L214.014,204l-3.244,1.345-3.652-1.487a1.3,1.3,0,0,0-1.414.286l-4.25,4.25a1.3,1.3,0,0,0-.286,1.414l1.487,3.652-1.345,3.244-3.623,1.526a1.3,1.3,0,0,0-.8,1.2v6.01a1.3,1.3,0,0,0,.8,1.2l3.624,1.526,1.345,3.245-1.487,3.652a1.3,1.3,0,0,0,.286,1.414l4.252,4.249a1.3,1.3,0,0,0,1.414.286l3.652-1.485,3.244,1.343,1.526,3.626a1.3,1.3,0,0,0,1.2.8h6.01a1.3,1.3,0,0,0,1.2-.8l1.526-3.626,3.245-1.345,3.652,1.487a1.3,1.3,0,0,0,1.411-.287l4.252-4.252a1.3,1.3,0,0,0,.286-1.414l-1.485-3.652,1.343-3.245,3.626-1.526a1.3,1.3,0,0,0,.8-1.2v-6.01A1.3,1.3,0,0,0,241.808,218.226ZM240,224.572l-3.321,1.4a1.3,1.3,0,0,0-.7.7l-1.754,4.236a1.3,1.3,0,0,0,0,.989l1.358,3.351-3.018,3.019-3.345-1.362a1.313,1.313,0,0,0-.99,0l-4.235,1.755a1.3,1.3,0,0,0-.7.7l-1.4,3.323h-4.278l-1.4-3.321a1.3,1.3,0,0,0-.7-.7l-4.236-1.754a1.3,1.3,0,0,0-.99,0l-3.345,1.36-3.024-3.021,1.362-3.345a1.3,1.3,0,0,0,0-.99l-1.755-4.235a1.3,1.3,0,0,0-.7-.7l-3.321-1.4V220.3l3.319-1.4a1.3,1.3,0,0,0,.7-.7l1.755-4.235a1.3,1.3,0,0,0,0-.991l-1.362-3.345,3.024-3.024,3.345,1.362a1.287,1.287,0,0,0,.991,0l4.235-1.755a1.3,1.3,0,0,0,.7-.7l1.4-3.319h4.278l1.4,3.321a1.3,1.3,0,0,0,.7.7l4.235,1.755a1.289,1.289,0,0,0,.99,0l3.351-1.367,3.024,3.024-1.362,3.345a1.3,1.3,0,0,0,0,.991l1.755,4.235a1.3,1.3,0,0,0,.7.7l3.317,1.4Z" transform="translate(-196.888 -199.576)" fill="#fff"/>
      </g>
    </g>
    <g id="Group_9" data-name="Group 9" transform="translate(44.172 42.353)">
      <g id="Group_8" data-name="Group 8">
        <path id="Path_13" data-name="Path 13" d="M270.154,259.792A13.042,13.042,0,1,0,283.2,272.834,13.042,13.042,0,0,0,270.154,259.792Zm0,23.476a10.434,10.434,0,1,1,10.434-10.434A10.434,10.434,0,0,1,270.154,283.268Z" transform="translate(-257.112 -259.792)" fill="#fff"/>
      </g>
    </g>
    <g id="Group_11" data-name="Group 11" transform="translate(55.91 54.091)">
      <g id="Group_10" data-name="Group 10">
        <rect id="Rectangle_2" data-name="Rectangle 2" width="2.608" height="2.608" fill="#fff"/>
      </g>
    </g>
    <g id="Group_13" data-name="Group 13" transform="translate(50.693 54.091)">
      <g id="Group_12" data-name="Group 12">
        <rect id="Rectangle_3" data-name="Rectangle 3" width="2.608" height="2.608" fill="#fff"/>
      </g>
    </g>
    <g id="Group_15" data-name="Group 15" transform="translate(61.122 54.091)">
      <g id="Group_14" data-name="Group 14">
        <rect id="Rectangle_4" data-name="Rectangle 4" width="2.608" height="2.608" fill="#fff"/>
      </g>
    </g>
    <g id="Group_17" data-name="Group 17" transform="translate(22.913)">
      <g id="Group_16" data-name="Group 16">
        <path id="Path_14" data-name="Path 14" d="M160.985,14.6l-3.446-1.775-.6-1.453,1.182-3.7a1.3,1.3,0,0,0-.32-1.319L155.34,3.893a1.3,1.3,0,0,0-1.319-.32l-3.7,1.182-1.453-.6L147.1.707A1.3,1.3,0,0,0,145.937,0h-3.478A1.3,1.3,0,0,0,141.3.707L139.52,4.153l-1.452.6-3.692-1.182a1.3,1.3,0,0,0-1.32.32L130.6,6.351a1.3,1.3,0,0,0-.32,1.319l1.18,3.7-.6,1.453L127.411,14.6a1.3,1.3,0,0,0-.707,1.159v3.478a1.3,1.3,0,0,0,.707,1.159l3.444,1.779.6,1.452-1.18,3.7a1.3,1.3,0,0,0,.32,1.32l2.458,2.46a1.3,1.3,0,0,0,1.319.32l3.7-1.18,1.449.6,1.775,3.444a1.3,1.3,0,0,0,1.159.707h3.482a1.3,1.3,0,0,0,1.159-.707l1.775-3.444,1.453-.6,3.7,1.18a1.3,1.3,0,0,0,1.319-.32l2.458-2.458a1.3,1.3,0,0,0,.32-1.319l-1.182-3.7.6-1.449,3.446-1.775a1.3,1.3,0,0,0,.707-1.163V15.755A1.3,1.3,0,0,0,160.985,14.6Zm-1.9,3.843-3.164,1.63a1.3,1.3,0,0,0-.608.66l-.966,2.335a1.3,1.3,0,0,0-.037.895l1.084,3.391-1.335,1.343-3.391-1.084a1.3,1.3,0,0,0-.9.037l-2.335.968a1.3,1.3,0,0,0-.659.606l-1.63,3.164h-1.894l-1.63-3.169a1.3,1.3,0,0,0-.66-.606l-2.335-.968a1.3,1.3,0,0,0-.895-.037l-3.391,1.084L133,27.353l1.084-3.391a1.3,1.3,0,0,0-.037-.9l-.968-2.335a1.3,1.3,0,0,0-.606-.66l-3.164-1.63V16.549l3.164-1.63a1.3,1.3,0,0,0,.606-.659l.968-2.335a1.3,1.3,0,0,0,.037-.9L133,7.635,134.339,6.3l3.391,1.084a1.292,1.292,0,0,0,.9-.037l2.335-.966a1.3,1.3,0,0,0,.66-.608l1.633-3.164h1.89l1.63,3.164a1.3,1.3,0,0,0,.659.608l2.335.966a1.292,1.292,0,0,0,.9.037L154.053,6.3l1.339,1.336-1.084,3.391a1.3,1.3,0,0,0,.037.9l.966,2.335a1.3,1.3,0,0,0,.608.659l3.164,1.634Z" transform="translate(-126.704)" fill="#fff"/>
      </g>
    </g>
    <g id="Group_19" data-name="Group 19" transform="translate(2.696 30.872)">
      <g id="Group_18" data-name="Group 18" transform="translate(0)">
        <path id="Path_15" data-name="Path 15" d="M33.718,202.691l-3.4-1.753-.406-.976,1.166-3.652a1.3,1.3,0,0,0-.321-1.32L28.8,193.034a1.3,1.3,0,0,0-1.32-.32l-3.652,1.166-.977-.4-1.753-3.4a1.3,1.3,0,0,0-1.159-.707H17.175a1.3,1.3,0,0,0-1.158.707l-1.754,3.4-.976.4-3.643-1.165a1.3,1.3,0,0,0-1.321.32l-1.956,1.956a1.3,1.3,0,0,0-.325,1.326l1.166,3.652-.4.976-3.4,1.745a1.3,1.3,0,0,0-.707,1.158v2.773a1.3,1.3,0,0,0,.707,1.159l3.4,1.749.4.977-1.166,3.652a1.3,1.3,0,0,0,.32,1.32l1.956,1.956a1.3,1.3,0,0,0,1.326.317l3.652-1.166.976.406,1.753,3.4a1.3,1.3,0,0,0,1.158.707h2.765a1.3,1.3,0,0,0,1.159-.707l1.753-3.4.977-.406,3.652,1.166a1.3,1.3,0,0,0,1.32-.32l1.956-1.956a1.3,1.3,0,0,0,.321-1.32L29.92,210.5l.406-.977,3.4-1.753a1.3,1.3,0,0,0,.7-1.153v-2.773A1.3,1.3,0,0,0,33.718,202.691Zm-1.9,3.133-3.12,1.608a1.289,1.289,0,0,0-.606.66l-.769,1.857a1.3,1.3,0,0,0-.038.9l1.069,3.345-.835.835-3.345-1.069a1.289,1.289,0,0,0-.9.038l-1.857.769a1.289,1.289,0,0,0-.66.606l-1.608,3.12H17.976l-1.608-3.12a1.289,1.289,0,0,0-.66-.606l-1.858-.769a1.285,1.285,0,0,0-.9-.038l-3.345,1.069-.835-.835,1.069-3.345a1.3,1.3,0,0,0-.037-.9l-.771-1.857a1.3,1.3,0,0,0-.608-.659L5.3,205.823v-1.174l3.118-1.608a1.3,1.3,0,0,0,.608-.659l.771-1.859a1.3,1.3,0,0,0,.037-.9l-1.069-3.345.835-.835,3.345,1.069a1.3,1.3,0,0,0,.9-.037l1.858-.771a1.3,1.3,0,0,0,.652-.608l1.608-3.118h1.174l1.608,3.118a1.3,1.3,0,0,0,.652.608l1.857.771a1.3,1.3,0,0,0,.9.037l3.345-1.069.835.835-1.069,3.345a1.3,1.3,0,0,0,.038.9l.769,1.858a1.289,1.289,0,0,0,.606.66l3.138,1.6v1.179Z" transform="translate(-2.696 -189.368)" fill="#fff"/>
      </g>
    </g>
    <g id="Group_21" data-name="Group 21" transform="translate(31.278 8.364)">
      <g id="Group_20" data-name="Group 20">
        <path id="Path_16" data-name="Path 16" d="M187.145,51.3a9.129,9.129,0,1,0,9.129,9.129A9.129,9.129,0,0,0,187.145,51.3Zm0,15.65a6.521,6.521,0,1,1,6.521-6.521h0A6.529,6.529,0,0,1,187.145,66.954Z" transform="translate(-178.016 -51.304)" fill="#fff"/>
      </g>
    </g>
    <g id="Group_23" data-name="Group 23" transform="translate(36.495 16.189)">
      <g id="Group_22" data-name="Group 22">
        <rect id="Rectangle_5" data-name="Rectangle 5" width="2.608" height="2.608" fill="#fff"/>
      </g>
    </g>
    <g id="Group_25" data-name="Group 25" transform="translate(41.711 16.189)">
      <g id="Group_24" data-name="Group 24">
        <rect id="Rectangle_6" data-name="Rectangle 6" width="2.608" height="2.608" fill="#fff"/>
      </g>
    </g>
    <g id="Group_27" data-name="Group 27" transform="translate(12.039 40.217)">
      <g id="Group_26" data-name="Group 26">
        <path id="Path_17" data-name="Path 17" d="M66.529,246.688a6.521,6.521,0,1,0,6.521,6.521A6.521,6.521,0,0,0,66.529,246.688Zm0,10.434a3.913,3.913,0,1,1,3.913-3.913A3.913,3.913,0,0,1,66.529,257.122Z" transform="translate(-60.008 -246.688)" fill="#fff"/>
      </g>
    </g>
    <g id="Group_29" data-name="Group 29" transform="translate(17.256 45.433)">
      <g id="Group_28" data-name="Group 28">
        <rect id="Rectangle_7" data-name="Rectangle 7" width="2.608" height="2.608" fill="#fff"/>
      </g>
    </g>
    <g id="Group_31" data-name="Group 31" transform="translate(60.943 14.824)">
      <g id="Group_30" data-name="Group 30">
        <path id="Path_18" data-name="Path 18" d="M361.724,90.928l-1.74,1.943a30.068,30.068,0,0,1,9.585,17.358l2.572-.43A32.678,32.678,0,0,0,361.724,90.928Z" transform="translate(-359.984 -90.928)" fill="#fff"/>
      </g>
    </g>
    <g id="Group_33" data-name="Group 33" transform="translate(9.7 14.672)">
      <g id="Group_32" data-name="Group 32">
        <path id="Path_19" data-name="Path 19" d="M55.335,90a32.575,32.575,0,0,0-9.679,15.112l2.5.746a29.959,29.959,0,0,1,8.906-13.9Z" transform="translate(-45.656 -90)" fill="#fff"/>
      </g>
    </g>
    <g id="Group_35" data-name="Group 35" transform="translate(22.916 64.124)">
      <g id="Group_34" data-name="Group 34" transform="translate(0)">
        <path id="Path_20" data-name="Path 20" d="M128.172,393.336l-1.444,2.173a32.312,32.312,0,0,0,11.238,4.726l.54-2.552A29.728,29.728,0,0,1,128.172,393.336Z" transform="translate(-126.728 -393.336)" fill="#fff"/>
      </g>
    </g>
  </g>
</svg>
