<svg id="vehicle" xmlns="http://www.w3.org/2000/svg" width="88.996" height="58.254" viewBox="0 0 88.996 58.254">
  <path id="Path_26" data-name="Path 26" d="M83.483,27.061a2.657,2.657,0,0,0-.182-.2l-3.119-3.01c2.587-.587,5.371-2.754,5.371-4.977,0-2.59-3.595-3.509-6.663-3.509-3.208,0-3.58,2.2-3.618,3.751l-8.047-7.758a11.356,11.356,0,0,0-7.053-2.892H28.823a11.36,11.36,0,0,0-7.051,2.892l-8.045,7.758c-.042-1.553-.414-3.751-3.618-3.751-3.072,0-6.664.919-6.664,3.509,0,2.223,2.786,4.39,5.373,4.977L5.7,26.858c-.071.067-.12.134-.182.2A17.47,17.47,0,0,0,0,39.04V50.445A10.4,10.4,0,0,0,2.855,57.6v4.423a4.77,4.77,0,0,0,4.828,4.7h5.838a4.766,4.766,0,0,0,4.826-4.7V60.89h52.3v1.132a4.765,4.765,0,0,0,4.828,4.7h5.836a4.767,4.767,0,0,0,4.826-4.7V57.6A10.4,10.4,0,0,0,89,50.445V39.04A17.45,17.45,0,0,0,83.483,27.061ZM24.727,14.8a8.046,8.046,0,0,1,4.1-1.658H60.177a8.046,8.046,0,0,1,4.1,1.658L74.825,25.029H14.177ZM3.62,37.315a5,5,0,0,1,4.912-5.088c2.712,0,11.574,5.2,11.574,8.01S11.243,42.4,8.532,42.4A5,5,0,0,1,3.62,37.315ZM18.349,55.889H16.478l-5.549.009a10.551,10.551,0,0,1-3.395-1.64,4.815,4.815,0,0,1-.919-.934,3.653,3.653,0,0,1-.516-.943,4.291,4.291,0,0,1,.736-3.744h9.471l6.314,7.247-4.27,0Zm39.768,0H30.882a5.146,5.146,0,0,1-5.144-5.142H63.261A5.144,5.144,0,0,1,58.117,55.893Zm1.2-8.651H29.687c-3.088,0-5.594-3.807-5.594-8.5H64.907C64.907,43.436,62.4,47.241,59.313,47.241ZM82.9,52.385a3.679,3.679,0,0,1-.518.941,4.713,4.713,0,0,1-.919.934A10.457,10.457,0,0,1,78.07,55.9l-5.549-.009H66.376l6.317-7.247h9.469A4.282,4.282,0,0,1,82.9,52.385ZM80.468,42.4c-2.71,0-11.572.647-11.572-2.158s8.862-8.01,11.572-8.01a5.087,5.087,0,0,1,0,10.168Z" transform="translate(0 -8.463)" fill="#1048b8"/>
</svg>
