<svg id="wrench" xmlns="http://www.w3.org/2000/svg" width="80.229" height="80.715" viewBox="0 0 80.229 80.715">
  <g id="Group_52" data-name="Group 52" transform="translate(56.225 21.892)">
    <g id="Group_51" data-name="Group 51">
      <circle id="Ellipse_1" data-name="Ellipse 1" cx="1.3" cy="1.3" r="1.3" fill="#df6412"/>
    </g>
  </g>
  <g id="Group_55" data-name="Group 55" transform="translate(0 0)">
    <g id="Group_54" data-name="Group 54">
      <g id="Group_53" data-name="Group 53">
        <path id="Path_31" data-name="Path 31" d="M319.08,217.39c.011-.012-.012.012,0,0Z" transform="translate(-269.018 -183.116)" fill="#df6412"/>
        <path id="Path_32" data-name="Path 32" d="M296.114,194.434Z" transform="translate(-249.674 -163.78)" fill="#df6412"/>
        <path id="Path_33" data-name="Path 33" d="M78.52,20.308H76.932a20.961,20.961,0,0,0-2.43-5.862l1.124-1.124a3.254,3.254,0,0,0,0-4.6L73.044,6.144a3.254,3.254,0,0,0-4.6,0L67.324,7.268a20.964,20.964,0,0,0-5.862-2.43V3.25A3.254,3.254,0,0,0,58.212,0H54.56a3.254,3.254,0,0,0-3.25,3.25V4.838a20.963,20.963,0,0,0-5.862,2.43L44.324,6.144a3.254,3.254,0,0,0-4.6,0L37.145,8.726a3.254,3.254,0,0,0,0,4.6l1.124,1.124a20.966,20.966,0,0,0-2.43,5.862H34.252A3.254,3.254,0,0,0,31,23.558V27.21a3.254,3.254,0,0,0,3.25,3.25H35.84a21,21,0,0,0,2.413,5.835l.28.481L17.049,58.259A11.574,11.574,0,0,0,2.31,73.3a1.177,1.177,0,0,0,1.931.411l6.033-6.033L13.255,68.9l1.321,3.092L8.551,78.016a1.177,1.177,0,0,0,.41,1.931A11.574,11.574,0,0,0,24,65.207l3.985-3.985a1.177,1.177,0,1,0-1.664-1.664l-4.534,4.534a1.177,1.177,0,0,0-.244,1.309,9.22,9.22,0,0,1-9.893,12.844L16.8,73.093a1.177,1.177,0,0,0,.25-1.294L15.23,67.532a1.176,1.176,0,0,0-.635-.626L10.444,65.2a1.177,1.177,0,0,0-1.28.256L4.011,70.608a9.22,9.22,0,0,1,12.844-9.892,1.177,1.177,0,0,0,1.309-.244L47.983,30.654a1.177,1.177,0,0,0,.244-1.309A9.22,9.22,0,0,1,58.119,16.5l0,0L52.95,21.669l-.027.028,0,0,0,.005-.025.028-.006.007-.009.01-.009.011-.005.006-.008.01-.006.008-.008.011-.005.007-.007.01-.006.008-.007.01-.006.008-.007.01-.006.009-.007.01,0,.008-.007.012,0,.007-.007.011,0,.008-.006.01,0,.009-.006.01,0,.009-.006.012,0,.007-.006.012,0,.008L52.717,22l0,.009-.005.012,0,.008,0,.011,0,.01,0,.01,0,.01,0,.012,0,.008,0,.012,0,.008,0,.013,0,.007,0,.012,0,.009,0,.011,0,.01,0,.01,0,.01,0,.012,0,.009,0,.013,0,.008,0,.013,0,.008,0,.012,0,.009,0,.013,0,.009,0,.012,0,.009,0,.012v.009l0,.014v.007s0,.01,0,.015v.007s0,.009,0,.014v.065s0,.005,0,.008,0,.01,0,.015,0,0,0,.007v.022c0,.005,0,.01,0,.015s0,0,0,.006v.015s0,0,0,.007,0,.01,0,.015,0,0,0,.007,0,.011,0,.016v.027l0,.016v.006l0,.015v.006l0,.016v.006l0,.016v.006l0,.015v.006l0,.016v.006l0,.016v.005l0,.015,0,.007,0,.014,0,.007,0,.015,0,.006,0,.015,0,.007,0,.014,0,.008,0,.013,0,.008,0,.012,0,.01,0,.011,0,.009,0,.011,0,0,1.723,4.136a1.176,1.176,0,0,0,.619.627l4.251,1.838a1.177,1.177,0,0,0,1.3-.248l5.169-5.169a9.22,9.22,0,0,1-12.844,9.893,1.177,1.177,0,0,0-1.309.244L29.648,56.229a1.177,1.177,0,0,0,1.664,1.664l14.3-14.3a21.005,21.005,0,0,0,5.7,2.333v1.588a3.254,3.254,0,0,0,3.25,3.25h3.652a3.254,3.254,0,0,0,3.25-3.25V45.929a20.958,20.958,0,0,0,5.862-2.43l1.124,1.124a3.25,3.25,0,0,0,4.6,0l2.582-2.582a3.25,3.25,0,0,0,0-4.6L74.5,36.321a20.966,20.966,0,0,0,2.43-5.862h1.588a3.254,3.254,0,0,0,3.25-3.25V23.558A3.254,3.254,0,0,0,78.52,20.308ZM61.886,24.681,59.5,27.064l-3.095-1.422-1.231-2.872,2.961-2.961,3.315.995.995,3.315ZM79.416,27.21a.9.9,0,0,1-.9.9H76.334a1.613,1.613,0,0,0-1.567,1.268A18.64,18.64,0,0,1,72.2,35.56a1.614,1.614,0,0,0,.212,2l1.546,1.546a.9.9,0,0,1,0,1.268L71.38,42.96a.9.9,0,0,1-1.268,0l-1.546-1.546a1.615,1.615,0,0,0-2-.212,18.639,18.639,0,0,1-6.185,2.563,1.613,1.613,0,0,0-1.268,1.567v2.186a.9.9,0,0,1-.9.9H54.56a.9.9,0,0,1-.9-.9V45.333A1.614,1.614,0,0,0,52.4,43.766a18.635,18.635,0,0,1-5.061-1.893l2.234-2.234A15.805,15.805,0,0,0,71.891,28.425a1.177,1.177,0,1,0-2.31-.45,13.451,13.451,0,0,1-18.228,9.88l1.366-1.366A11.574,11.574,0,0,0,67.458,21.451a1.177,1.177,0,0,0-1.931-.411l-1.189,1.189-.813-2.708a1.176,1.176,0,0,0-.789-.789l-2.708-.813,1.189-1.189a1.177,1.177,0,0,0-.411-1.931A11.574,11.574,0,0,0,45.77,29.539L44.213,31.1A13.447,13.447,0,1,1,69.72,23.643a1.177,1.177,0,1,0,2.334-.3A15.8,15.8,0,1,0,42.46,32.849l-2.206,2.206a18.651,18.651,0,0,1-2.249-5.68,1.614,1.614,0,0,0-1.567-1.268H34.252a.9.9,0,0,1-.9-.9V23.559a.9.9,0,0,1,.9-.9h2.186A1.613,1.613,0,0,0,38,21.394a18.641,18.641,0,0,1,2.563-6.185,1.613,1.613,0,0,0-.212-2L38.81,11.658a.9.9,0,0,1,0-1.268l2.582-2.582a.9.9,0,0,1,1.268,0l1.546,1.546a1.614,1.614,0,0,0,2.005.212A18.639,18.639,0,0,1,52.4,7a1.614,1.614,0,0,0,1.267-1.567V3.25a.9.9,0,0,1,.9-.9h3.652a.9.9,0,0,1,.9.9V5.436A1.614,1.614,0,0,0,60.377,7a18.636,18.636,0,0,1,6.184,2.563,1.615,1.615,0,0,0,2.005-.212l1.546-1.546a.9.9,0,0,1,1.268,0l2.582,2.582a.9.9,0,0,1,0,1.268L72.417,13.2a1.614,1.614,0,0,0-.212,2.005,18.64,18.64,0,0,1,2.563,6.185,1.613,1.613,0,0,0,1.567,1.268h2.186a.9.9,0,0,1,.9.9V27.21Z" transform="translate(-1.542 0)" fill="#df6412"/>
      </g>
    </g>
  </g>
  <g id="Group_57" data-name="Group 57" transform="translate(2.326 14.835)">
    <g id="Group_56" data-name="Group 56" transform="translate(0)">
      <path id="Path_34" data-name="Path 34" d="M37.912,102.578h-.659a9.71,9.71,0,0,0-.439-1.061l.466-.466a1.768,1.768,0,0,0,0-2.5L35.228,96.5a1.765,1.765,0,0,0-2.5,0l-.466.466a9.729,9.729,0,0,0-1.061-.439V95.87a1.767,1.767,0,0,0-1.765-1.765h-2.9a1.767,1.767,0,0,0-1.765,1.765v.659a9.71,9.71,0,0,0-1.061.439l-.466-.466a1.765,1.765,0,0,0-2.5,0L18.7,98.555a1.768,1.768,0,0,0,0,2.5l.466.466a9.728,9.728,0,0,0-.439,1.061h-.659a1.767,1.767,0,0,0-1.765,1.765v2.9a1.767,1.767,0,0,0,1.765,1.765h.659a9.709,9.709,0,0,0,.439,1.061l-.466.466a1.768,1.768,0,0,0,0,2.5l2.052,2.052a1.765,1.765,0,0,0,2.5,0l.466-.466a9.729,9.729,0,0,0,1.061.439v.659a1.767,1.767,0,0,0,1.765,1.765h2.9a1.767,1.767,0,0,0,1.765-1.765v-.659a9.71,9.71,0,0,0,1.061-.439l.466.466a1.765,1.765,0,0,0,2.5,0l2.053-2.052a1.768,1.768,0,0,0,0-2.5l-.466-.466a9.728,9.728,0,0,0,.439-1.061h.659a1.767,1.767,0,0,0,1.765-1.765v-2.9A1.767,1.767,0,0,0,37.912,102.578Zm-.589,4.079h-.951a1.177,1.177,0,0,0-1.144.9,7.391,7.391,0,0,1-.874,2.112,1.177,1.177,0,0,0,.173,1.445l.672.671-1.22,1.22-.672-.672a1.177,1.177,0,0,0-1.445-.173,7.394,7.394,0,0,1-2.112.874,1.177,1.177,0,0,0-.9,1.144v.951H27.125v-.951a1.177,1.177,0,0,0-.9-1.144,7.394,7.394,0,0,1-2.112-.874,1.176,1.176,0,0,0-1.445.173l-.672.672-1.22-1.22.672-.671a1.177,1.177,0,0,0,.173-1.445,7.391,7.391,0,0,1-.874-2.112,1.177,1.177,0,0,0-1.144-.9h-.951v-1.726H19.6a1.177,1.177,0,0,0,1.144-.9,7.391,7.391,0,0,1,.874-2.112,1.177,1.177,0,0,0-.173-1.445l-.672-.671L22,98.583l.672.672a1.177,1.177,0,0,0,1.445.173,7.393,7.393,0,0,1,2.112-.874,1.177,1.177,0,0,0,.9-1.144v-.951h1.726v.951a1.177,1.177,0,0,0,.9,1.144,7.393,7.393,0,0,1,2.112.874,1.177,1.177,0,0,0,1.445-.173l.672-.672L35.2,99.8l-.672.671a1.177,1.177,0,0,0-.173,1.445,7.391,7.391,0,0,1,.874,2.112,1.177,1.177,0,0,0,1.144.9h.951v1.726Z" transform="translate(-16.299 -94.105)" fill="#df6412"/>
    </g>
  </g>
  <g id="Group_59" data-name="Group 59" transform="translate(8.289 20.798)">
    <g id="Group_58" data-name="Group 58" transform="translate(0)">
      <path id="Path_35" data-name="Path 35" d="M59.847,131.926a5.727,5.727,0,1,0,5.727,5.727A5.733,5.733,0,0,0,59.847,131.926Zm0,9.1a3.373,3.373,0,1,1,3.373-3.373A3.377,3.377,0,0,1,59.847,141.026Z" transform="translate(-54.12 -131.926)" fill="#df6412"/>
    </g>
  </g>
  <g id="Group_61" data-name="Group 61" transform="translate(43.435 53.747)">
    <g id="Group_60" data-name="Group 60">
      <path id="Path_36" data-name="Path 36" d="M298.673,349.406h-.659a9.714,9.714,0,0,0-.439-1.061l.466-.466a1.768,1.768,0,0,0,0-2.5l-2.052-2.052a1.765,1.765,0,0,0-2.5,0l-.466.466a9.719,9.719,0,0,0-1.061-.439V342.7a1.767,1.767,0,0,0-1.765-1.765h-2.9a1.767,1.767,0,0,0-1.765,1.765v.659a9.71,9.71,0,0,0-1.061.439l-.466-.466a1.765,1.765,0,0,0-2.5,0l-2.053,2.052a1.768,1.768,0,0,0,0,2.5l.466.466a9.723,9.723,0,0,0-.439,1.061h-.659a1.767,1.767,0,0,0-1.765,1.765v2.9a1.767,1.767,0,0,0,1.765,1.765h.659a9.711,9.711,0,0,0,.439,1.061l-.466.466a1.768,1.768,0,0,0,0,2.5l2.052,2.052a1.765,1.765,0,0,0,2.5,0l.466-.466a9.725,9.725,0,0,0,1.061.439v.659a1.767,1.767,0,0,0,1.765,1.765h2.9a1.767,1.767,0,0,0,1.765-1.765v-.659a9.707,9.707,0,0,0,1.061-.439l.466.466a1.765,1.765,0,0,0,2.5,0l2.053-2.052a1.768,1.768,0,0,0,0-2.5l-.466-.466a9.74,9.74,0,0,0,.439-1.061h.659a1.767,1.767,0,0,0,1.765-1.765v-2.9A1.767,1.767,0,0,0,298.673,349.406Zm-.588,4.079h-.951a1.177,1.177,0,0,0-1.144.9,7.39,7.39,0,0,1-.874,2.112,1.177,1.177,0,0,0,.173,1.445l.672.671-1.22,1.22-.672-.672a1.177,1.177,0,0,0-1.445-.173,7.393,7.393,0,0,1-2.112.874,1.177,1.177,0,0,0-.9,1.144v.951h-1.726v-.951a1.177,1.177,0,0,0-.9-1.144,7.393,7.393,0,0,1-2.112-.874,1.176,1.176,0,0,0-1.445.173l-.672.672-1.22-1.22.672-.671a1.177,1.177,0,0,0,.173-1.445,7.39,7.39,0,0,1-.874-2.112,1.177,1.177,0,0,0-1.144-.9h-.951v-1.726h.951a1.177,1.177,0,0,0,1.144-.9,7.39,7.39,0,0,1,.874-2.112,1.177,1.177,0,0,0-.173-1.445l-.672-.671,1.22-1.22.672.672a1.177,1.177,0,0,0,1.445.173,7.393,7.393,0,0,1,2.112-.874,1.177,1.177,0,0,0,.9-1.144v-.951h1.726v.951a1.177,1.177,0,0,0,.9,1.144,7.393,7.393,0,0,1,2.112.874,1.177,1.177,0,0,0,1.445-.173l.672-.672,1.22,1.22-.672.671a1.177,1.177,0,0,0-.173,1.445,7.39,7.39,0,0,1,.874,2.112,1.177,1.177,0,0,0,1.144.9h.951Z" transform="translate(-277.06 -340.933)" fill="#df6412"/>
    </g>
  </g>
  <g id="Group_63" data-name="Group 63" transform="translate(49.397 59.709)">
    <g id="Group_62" data-name="Group 62">
      <path id="Path_37" data-name="Path 37" d="M320.608,378.753a5.727,5.727,0,1,0,5.727,5.727A5.733,5.733,0,0,0,320.608,378.753Zm0,9.1a3.373,3.373,0,1,1,3.373-3.373A3.377,3.377,0,0,1,320.608,387.853Z" transform="translate(-314.881 -378.753)" fill="#df6412"/>
    </g>
  </g>
</svg>
